<?xml version="1.0" encoding="UTF-8"?>
<svg id="Vrstva_1" data-name="Vrstva 1" xmlns="http://www.w3.org/2000/svg" viewBox="0 0 1876.31 500">
  <defs>
    <style>
      .cls-1 {
        fill: #036;
      }

      .cls-2 {
        fill: #efeae2;
      }

      .cls-3 {
        fill: #cedc00;
      }
    </style>
  </defs>
  <path class="cls-1" d="M1709.49,0H0v500h1663.26v-166.37h46.23c92.13,0,166.82-74.69,166.82-166.82S1801.62,0,1709.49,0Z"/>
  <polygon class="cls-3" points="1809.38 133.52 1709.5 133.52 1709.5 66.93 1609.61 200.12 1709.5 200.12 1709.5 266.7 1809.38 133.52"/>
  <g>
    <path class="cls-2" d="M180.75,213.58v196.04h-90.38V90.38h102.97l130.4,170.41V90.38h88.13v319.25h-77.34l-153.78-196.04Z"/>
    <path class="cls-2" d="M465.39,250c0-100.72,75.09-165.02,171.32-165.02s171.31,64.3,171.31,165.02-75.09,165.02-171.31,165.02-171.32-65.65-171.32-165.02ZM714.49,250c0-46.76-29.23-83.18-77.79-83.18s-77.79,36.42-77.79,83.18,29.23,83.18,77.79,83.18,77.79-36.42,77.79-83.18Z"/>
    <path class="cls-2" d="M1089.95,290.02h-136.24v119.6h-92.18V90.38h92.18v119.6h136.24v-119.6h92.18v319.25h-92.18v-119.6Z"/>
    <path class="cls-2" d="M1235.65,250c0-100.72,75.09-165.02,171.32-165.02s171.31,64.3,171.31,165.02-75.09,165.02-171.31,165.02-171.32-65.65-171.32-165.02ZM1484.75,250c0-46.76-29.23-83.18-77.79-83.18s-77.79,36.42-77.79,83.18,29.23,83.18,77.79,83.18,77.79-36.42,77.79-83.18Z"/>
  </g>
</svg>